<?xml version="1.0" encoding="utf-8"?>
<!-- Generator: Adobe Illustrator 16.0.0, SVG Export Plug-In . SVG Version: 6.00 Build 0)  -->
<!DOCTYPE svg PUBLIC "-//W3C//DTD SVG 1.1//EN" "http://www.w3.org/Graphics/SVG/1.1/DTD/svg11.dtd">
<svg version="1.1" id="Layer_1" xmlns="http://www.w3.org/2000/svg" xmlns:xlink="http://www.w3.org/1999/xlink" x="0px" y="0px"
	 width="124.69px" height="124.688px" viewBox="0 0 124.69 124.688" enable-background="new 0 0 124.69 124.688"
	 xml:space="preserve">
<g>
	<circle fill="#EAEAE0" cx="62.345" cy="62.344" r="62.345"/>
	<g>
		<path fill="#333333" d="M22.506,68.92l6.668-20.281l-3.833-0.834v-3.057l12.447-0.277v3.334l-3.057,0.555l-9.446,25.562h-6.113
			l-9.113-25.283l-2.777-0.834v-3.057l12.502-0.277v3.334l-3.891,0.555L22.506,68.92z"/>
		<path fill="#333333" d="M55.868,73.922H41.42v-3.057l4.723-1.389V48.916l-4.723-1.111v-3.057l10.281-0.277v25.006l4.167,1.389
			V73.922z M48.644,31.412c2.224,0,3.612,1.111,3.612,3.891c0,2.5-1.945,3.889-3.612,3.889c-2.222,0-3.611-1.389-3.611-3.889
			C45.032,32.801,46.699,31.412,48.644,31.412z"/>
		<path fill="#333333" d="M117.41,58.641c0,9.445-5.557,15.836-13.893,15.836s-13.337-5-13.337-15.002
			c0-9.447,5.835-15.561,14.171-15.561C112.686,43.914,117.41,49.75,117.41,58.641z M96.016,59.195
			c0,6.668,2.223,10.836,7.78,10.836c5.556,0,7.78-3.889,7.78-11.113c0-6.113-1.946-10.559-7.502-10.559
			C98.516,48.359,96.016,51.973,96.016,59.195z"/>
		<path fill-rule="evenodd" clip-rule="evenodd" fill="#333333" d="M87.751,27.012l-9.725,0.221c0,0-1.944-1.055-5.558-1.055
			c-7.224,0-12.225,3.611-12.225,10.836c0,6.668,4.277,8.613,4.277,8.613s-2.889,4.445-2.889,6.279c0,0.088,0.005,0.172,0.016,0.248
			c-0.01,0.049-0.016,0.098-0.016,0.143c0,1.721,3.334,1.887,3.334,1.887s-3.521,1.158-3.521,4.137
			c0,3.605,3.182,4.777,10.801,4.799v2.73c-0.246,0.064-0.43,0.287-0.43,0.553v2.145h-7.695c-0.255,0-0.463,0.207-0.463,0.461v0.463
			c0,0.08,0.023,0.154,0.059,0.223c-0.018,0.154-0.01,0.338-0.01,0.535c0,0.535,0.434,0.969,0.968,0.969
			c0.536,0,0.97-0.434,0.97-0.969c0-0.074-0.02-0.148-0.053-0.219l4.693,0.129l-4.855,2.803v1.387l0.006-0.002
			c0.036,0.502,0.453,0.9,0.967,0.9c0.534,0,0.968-0.434,0.968-0.969c0-0.213-0.146-0.41-0.354-0.57l6.426-2.596l7.096,1.766
			c-0.123,0.129-0.201,0.275-0.201,0.43c0,0.535,0.435,0.971,0.969,0.971c0.536,0,0.969-0.436,0.969-0.971
			c0-0.205,0.008-0.396-0.011-0.555V71.9l-4.549-1.848l3.722-0.402c-0.08,0.107-0.131,0.225-0.131,0.348
			c0,0.533,0.435,0.969,0.971,0.969c0.535,0,0.969-0.436,0.969-0.969c0-0.316,0.02-0.596-0.074-0.771
			c0.033-0.068,0.055-0.141,0.055-0.219v-0.461c0-0.256-0.21-0.463-0.463-0.463l-7.928,0.393v-2.074
			c0-0.266-0.184-0.488-0.429-0.553v-2.764c8.112-0.299,10.198-2.537,10.198-5.924c0-3.145-3.89-4.801-11.114-4.801h-6.3
			l0.146-3.115l0.133-2.453c0,0,1.666,0.502,4.166,0.502c7.225,0,12.227-3.336,12.227-10.836c0-3.613-1.501-5.613-1.501-5.613
			l5.391-0.777V27.012z M71.913,43.404c-4.167,0-6.112-2.779-6.112-6.668c0-4.447,1.945-6.668,6.39-6.668
			c4.168,0,6.113,2.5,6.113,6.668C78.304,41.459,76.358,43.404,71.913,43.404z"/>
	</g>
	<g>
		<path fill="#333333" d="M19.313,88.773v0.688c0,0.643-0.515,1.158-1.157,1.158c-0.645,0-1.159-0.516-1.159-1.158v-3.025
			c0-0.643,0.515-1.158,1.159-1.158c0.643,0,1.157,0.516,1.157,1.158v1.609h-1.759v1.416c0,0.332,0.268,0.6,0.602,0.6
			c0.332,0,0.6-0.268,0.6-0.6v-0.623L19.313,88.773z M17.555,87.486h1.201v-1.051c0-0.332-0.268-0.6-0.6-0.6
			c-0.334,0-0.602,0.268-0.602,0.6V87.486z"/>
		<path fill="#333333" d="M27.517,92.238l-0.558,0.062v-2.047c-0.182,0.225-0.449,0.365-0.74,0.365
			c-0.557,0-1.018-0.516-1.018-1.158v-3.025c0-0.643,0.461-1.158,1.018-1.158c0.332,0,0.634,0.184,0.816,0.461l0.096-0.408h0.386
			V92.238z M26.959,86.436c0-0.332-0.268-0.6-0.6-0.6c-0.333,0-0.601,0.268-0.601,0.6v3.025c0,0.332,0.268,0.6,0.601,0.6
			c0.332,0,0.6-0.268,0.6-0.6V86.436z"/>
		<path fill="#333333" d="M35.859,85.33v5.234h-0.387l-0.096-0.406c-0.182,0.277-0.483,0.461-0.814,0.461
			c-0.559,0-1.02-0.516-1.02-1.158V85.33h0.559v4.131c0,0.332,0.268,0.6,0.6,0.6s0.601-0.268,0.601-0.6V85.33H35.859z"/>
		<path fill="#333333" d="M41.896,83.98h0.558v0.75h-0.558V83.98z M42.454,85.33h-0.558v5.234h0.558V85.33z"/>
		<path fill="#333333" d="M48.49,85.33h0.387l0.097,0.408c0.183-0.277,0.481-0.461,0.815-0.461c0.557,0,1.018,0.516,1.018,1.158
			v3.025c0,0.643-0.461,1.158-1.018,1.158c-0.291,0-0.559-0.141-0.74-0.365v1.984l-0.559,0.062V85.33z M49.049,89.461
			c0,0.332,0.268,0.6,0.6,0.6c0.334,0,0.601-0.268,0.601-0.6v-3.025c0-0.332-0.267-0.6-0.601-0.6c-0.332,0-0.6,0.268-0.6,0.6V89.461
			z"/>
		<path fill="#333333" d="M58.945,89.814c0,0.107,0.087,0.193,0.193,0.193v0.557c-0.225,0-0.429-0.098-0.568-0.246
			c-0.203,0.193-0.482,0.301-0.783,0.301c-0.643,0-1.158-0.516-1.158-1.158v-0.592c0-0.535,0.473-0.803,0.473-0.803l0.826-0.473
			c0,0,0.461-0.268,0.461-0.697v-0.525c0-0.299-0.236-0.535-0.536-0.535c-0.302,0-0.536,0.236-0.536,0.535v0.623l-0.559,0.064
			v-0.688c0-0.6,0.494-1.094,1.095-1.094c0.6,0,1.093,0.494,1.093,1.094V89.814z M57.187,89.461c0,0.332,0.269,0.6,0.601,0.6
			c0.333,0,0.602-0.268,0.602-0.6v-1.523c-0.086,0.086-0.182,0.139-0.182,0.139l-0.827,0.473c0,0-0.193,0.107-0.193,0.32V89.461z"/>
		<path fill="#333333" d="M68.512,86.436c0-0.332-0.27-0.6-0.601-0.6c-0.334,0-0.601,0.268-0.601,0.6v4.129h-0.559v-4.129
			c0-0.332-0.268-0.6-0.601-0.6s-0.601,0.268-0.601,0.6v4.129h-0.557V85.33h0.387l0.095,0.408c0.183-0.277,0.484-0.461,0.815-0.461
			c0.301,0,0.568,0.15,0.762,0.387c0.203-0.236,0.514-0.387,0.858-0.387c0.643,0,1.158,0.516,1.158,1.158v4.129h-0.558V86.436z"/>
		<path fill="#333333" d="M75.095,83.98h0.558v0.75h-0.558V83.98z M75.652,85.33h-0.558v5.234h0.558V85.33z"/>
		<path fill="#333333" d="M83.941,88.773v0.688c0,0.643-0.514,1.158-1.158,1.158c-0.644,0-1.159-0.516-1.159-1.158v-3.025
			c0-0.643,0.516-1.158,1.159-1.158c0.645,0,1.158,0.516,1.158,1.158v1.609h-1.76v1.416c0,0.332,0.269,0.6,0.602,0.6
			s0.6-0.268,0.6-0.6v-0.623L83.941,88.773z M82.182,87.486h1.201v-1.051c0-0.332-0.267-0.6-0.6-0.6s-0.602,0.268-0.602,0.6V87.486z
			"/>
		<path fill="#333333" d="M89.87,90.564V85.33h0.386l0.098,0.408c0.184-0.277,0.482-0.461,0.814-0.461
			c0.559,0,1.02,0.516,1.02,1.158v4.129h-0.559v-4.129c0-0.332-0.268-0.6-0.6-0.6c-0.333,0-0.601,0.268-0.601,0.6v4.129H89.87z"/>
		<path fill="#333333" d="M97.85,85.33h0.676v-1.006l0.559-0.064v1.07h0.674v0.559h-0.674v3.957c0,0.119,0.094,0.215,0.213,0.215
			v0.559c-0.43,0-0.771-0.344-0.771-0.773v-3.957H97.85V85.33z"/>
		<path fill="#333333" d="M105.377,86.436c0-0.643,0.514-1.158,1.158-1.158c0.644,0,1.158,0.516,1.158,1.158v3.025
			c0,0.643-0.515,1.158-1.158,1.158c-0.645,0-1.158-0.516-1.158-1.158V86.436z M105.935,89.461c0,0.332,0.267,0.6,0.601,0.6
			c0.332,0,0.6-0.268,0.6-0.6v-3.025c0-0.332-0.268-0.6-0.6-0.6c-0.334,0-0.601,0.268-0.601,0.6V89.461z"/>
	</g>
	<path fill="#333333" d="M108.114,80.281H16.576c-0.123,0-0.223-0.1-0.223-0.223s0.1-0.221,0.223-0.221h91.538
		c0.122,0,0.222,0.098,0.222,0.221S108.236,80.281,108.114,80.281z"/>
</g>
</svg>
