<?xml version="1.0" encoding="UTF-8"?>
<svg width="227px" height="138px" viewBox="0 0 227 138" version="1.1" xmlns="http://www.w3.org/2000/svg" xmlns:xlink="http://www.w3.org/1999/xlink">
    <!-- Generator: Sketch 45 (43475) - http://www.bohemiancoding.com/sketch -->
    <title>Group 2</title>
    <desc>Created with Sketch.</desc>
    <defs></defs>
    <g id="Page-1" stroke="none" stroke-width="1" fill="none" fill-rule="evenodd">
        <g id="No-fields-Copy-3" transform="translate(-382.000000, -446.000000)">
            <g id="Group-2" transform="translate(382.000000, 442.000000)">
                <g id="Group" font-size="16" font-family="AvenirNext-DemiBold, Avenir Next" fill="#E8E8E8" font-weight="500">
                    <text id="+">
                        <tspan x="216.672" y="16">+</tspan>
                    </text>
                    <text id="+-copy">
                        <tspan x="44.172" y="114">+</tspan>
                    </text>
                    <text id="+-copy-4">
                        <tspan x="171.172" y="142">+</tspan>
                    </text>
                    <text id="+-copy-3">
                        <tspan x="0.172" y="53">+</tspan>
                    </text>
                    <text id="+-copy-2">
                        <tspan x="143.172" y="53">+</tspan>
                    </text>
                </g>
                <g id="Page-1" opacity="0.665817482" transform="translate(83.000000, 4.000000)">
                    <polygon id="Fill-1" fill="#FFFFFF" points="0.219073171 115.444444 65.0572683 115.444444 65.0572683 50.3716284 0.219073171 50.3716284"></polygon>
                    <path d="M0,115.664751 L65.2772195,115.664751 L65.2772195,50.1513218 L0,50.1513218 L0,115.664751 Z M0.43902439,115.224138 L64.8381951,115.224138 L64.8381951,50.5919349 L0.43902439,50.5919349 L0.43902439,115.224138 Z" id="Fill-2" fill="#000000"></path>
                    <polygon id="Fill-3" fill="#FFFFFF" points="4.99653659 71.8171456 60.2802439 71.8171456 60.2802439 57.8889272 4.99653659 57.8889272"></polygon>
                    <path d="M59.8412195,64.5289655 L60.2802439,64.5289655 L60.2802439,62.3259004 L59.8412195,62.3259004 L59.8412195,64.5289655 Z M59.8412195,68.9350958 L60.2802439,68.9350958 L60.2802439,66.7320307 L59.8412195,66.7320307 L59.8412195,68.9350958 Z M60.2802439,71.1381609 L59.8412195,71.1381609 L59.8412195,71.3765326 L58.7616585,71.3765326 L58.7616585,71.8171456 L60.2802439,71.8171456 L60.2802439,71.1381609 Z M54.3714146,71.8171456 L56.5665366,71.8171456 L56.5665366,71.3765326 L54.3714146,71.3765326 L54.3714146,71.8171456 Z M49.9811707,71.8171456 L52.1762927,71.8171456 L52.1762927,71.3765326 L49.9811707,71.3765326 L49.9811707,71.8171456 Z M45.5909268,71.8171456 L47.7860488,71.8171456 L47.7860488,71.3765326 L45.5909268,71.3765326 L45.5909268,71.8171456 Z M41.2006829,71.8171456 L43.3958049,71.8171456 L43.3958049,71.3765326 L41.2006829,71.3765326 L41.2006829,71.8171456 Z M36.810439,71.8171456 L39.005561,71.8171456 L39.005561,71.3765326 L36.810439,71.3765326 L36.810439,71.8171456 Z M32.4201951,71.8171456 L34.6153171,71.8171456 L34.6153171,71.3765326 L32.4201951,71.3765326 L32.4201951,71.8171456 Z M28.0299512,71.8171456 L30.2250732,71.8171456 L30.2250732,71.3765326 L28.0299512,71.3765326 L28.0299512,71.8171456 Z M23.6397073,71.8171456 L25.8348293,71.8171456 L25.8348293,71.3765326 L23.6397073,71.3765326 L23.6397073,71.8171456 Z M19.2494634,71.8171456 L21.4445854,71.8171456 L21.4445854,71.3765326 L19.2494634,71.3765326 L19.2494634,71.8171456 Z M14.8592195,71.8171456 L17.0543415,71.8171456 L17.0543415,71.3765326 L14.8592195,71.3765326 L14.8592195,71.8171456 Z M10.4689756,71.8171456 L12.6640976,71.8171456 L12.6640976,71.3765326 L10.4689756,71.3765326 L10.4689756,71.8171456 Z M6.07873171,71.8171456 L8.27385366,71.8171456 L8.27385366,71.3765326 L6.07873171,71.3765326 L6.07873171,71.8171456 Z M4.99653659,70.7001916 L5.43556098,70.7001916 L5.43556098,68.4971264 L4.99653659,68.4971264 L4.99653659,70.7001916 Z M4.99653659,66.2940613 L5.43556098,66.2940613 L5.43556098,64.0909962 L4.99653659,64.0909962 L4.99653659,66.2940613 Z M4.99653659,61.887931 L5.43556098,61.887931 L5.43556098,59.6848659 L4.99653659,59.6848659 L4.99653659,61.887931 Z M5.40219512,58.3299808 L7.59731707,58.3299808 L7.59731707,57.8893678 L5.40219512,57.8893678 L5.40219512,58.3299808 Z M9.79243902,58.3299808 L11.987561,58.3299808 L11.987561,57.8893678 L9.79243902,57.8893678 L9.79243902,58.3299808 Z M14.1826829,58.3299808 L16.3778049,58.3299808 L16.3778049,57.8893678 L14.1826829,57.8893678 L14.1826829,58.3299808 Z M18.5729268,58.3299808 L20.7680488,58.3299808 L20.7680488,57.8893678 L18.5729268,57.8893678 L18.5729268,58.3299808 Z M22.9631707,58.3299808 L25.1582927,58.3299808 L25.1582927,57.8893678 L22.9631707,57.8893678 L22.9631707,58.3299808 Z M27.3534146,58.3299808 L29.5485366,58.3299808 L29.5485366,57.8893678 L27.3534146,57.8893678 L27.3534146,58.3299808 Z M31.7436585,58.3299808 L33.9387805,58.3299808 L33.9387805,57.8893678 L31.7436585,57.8893678 L31.7436585,58.3299808 Z M36.1339024,58.3299808 L38.3290244,58.3299808 L38.3290244,57.8893678 L36.1339024,57.8893678 L36.1339024,58.3299808 Z M40.5241463,58.3299808 L42.7192683,58.3299808 L42.7192683,57.8893678 L40.5241463,57.8893678 L40.5241463,58.3299808 Z M44.9143902,58.3299808 L47.1095122,58.3299808 L47.1095122,57.8893678 L44.9143902,57.8893678 L44.9143902,58.3299808 Z M49.3046341,58.3299808 L51.4997561,58.3299808 L51.4997561,57.8893678 L49.3046341,57.8893678 L49.3046341,58.3299808 Z M53.694878,58.3299808 L55.89,58.3299808 L55.89,57.8893678 L53.694878,57.8893678 L53.694878,58.3299808 Z M60.2802439,57.8893678 L58.085122,57.8893678 L58.085122,58.3299808 L59.8412195,58.3299808 L59.8412195,60.1228352 L60.2802439,60.1228352 L60.2802439,57.8893678 Z" id="Fill-4" fill="#A8A8A8"></path>
                    <polygon id="Fill-5" fill="#FFFFFF" points="5.21604878 89.6518391 60.0607317 89.6518391 60.0607317 76.1646743 5.21604878 76.1646743"></polygon>
                    <path d="M4.99653659,89.8721456 L60.2802439,89.8721456 L60.2802439,75.9443678 L4.99653659,75.9443678 L4.99653659,89.8721456 Z M5.43556098,89.4315326 L59.8412195,89.4315326 L59.8412195,76.3849808 L5.43556098,76.3849808 L5.43556098,89.4315326 Z" id="Fill-6" fill="#000000"></path>
                    <polygon id="Fill-7" fill="#FFFFFF" points="28.8601463 61.2794444 83.7048293 61.2794444 83.7048293 47.7922797 28.8601463 47.7922797"></polygon>
                    <path d="M28.6401951,61.499751 L83.9239024,61.499751 L83.9239024,47.5719732 L28.6401951,47.5719732 L28.6401951,61.499751 Z M29.0792195,61.0595785 L83.484878,61.0595785 L83.484878,48.0130268 L29.0792195,48.0130268 L29.0792195,61.0595785 Z" id="Fill-8" fill="#000000"></path>
                    <polygon id="Fill-9" fill="#FFFFFF" points="5.21604878 107.706398 60.0607317 107.706398 60.0607317 94.2192337 5.21604878 94.2192337"></polygon>
                    <path d="M4.99653659,107.926705 L60.2802439,107.926705 L60.2802439,93.9989272 L4.99653659,93.9989272 L4.99653659,107.926705 Z M5.43556098,107.486092 L59.8412195,107.486092 L59.8412195,94.4395402 L5.43556098,94.4395402 L5.43556098,107.486092 Z" id="Fill-10" fill="#000000"></path>
                    <polyline id="Stroke-11" stroke="#000000" points="74.2719951 50.1513218 74.2719951 44.9926245 77.0988732 42.1559579 77.3561415 42.1559579 80.1830195 44.9926245 80.1830195 48"></polyline>
                    <path d="M77.2377805,0.493476513 L77.2377805,42.2167625" id="Stroke-12" stroke="#000000"></path>
                    <polyline id="Stroke-13" stroke="#000000" points="32.1256537 50.1513218 32.1256537 44.9926245 34.9525317 42.1559579 35.2098 42.1559579 38.036678 44.9926245 38.036678 48"></polyline>
                    <path d="M35.091439,0.267701922 L35.091439,42.2167625" id="Stroke-14" stroke="#000000"></path>
                    <polygon id="Fill-15" fill="#DEDEDE" points="7.91341463 81.7375479 17.5719512 81.7375479 17.5719512 79.0938697 7.91341463 79.0938697"></polygon>
                    <polygon id="Fill-16" fill="#DEDEDE" points="7.91341463 86.5842912 43.254878 86.5842912 43.254878 83.940613 7.91341463 83.940613"></polygon>
                    <polygon id="Fill-17" fill="#DEDEDE" points="7.91341463 99.802682 17.5719512 99.802682 17.5719512 97.1590038 7.91341463 97.1590038"></polygon>
                    <polygon id="Fill-18" fill="#DEDEDE" points="7.91341463 104.649425 43.254878 104.649425 43.254878 102.005747 7.91341463 102.005747"></polygon>
                    <g id="Group-35" transform="translate(23.853659, 26.000000)"></g>
                </g>
            </g>
        </g>
    </g>
</svg>