<?xml version="1.0" encoding="utf-8"?>
<!-- Generator: Adobe Illustrator 16.0.0, SVG Export Plug-In . SVG Version: 6.00 Build 0)  -->
<!DOCTYPE svg PUBLIC "-//W3C//DTD SVG 1.1//EN" "http://www.w3.org/Graphics/SVG/1.1/DTD/svg11.dtd">
<svg version="1.1" id="Layer_1" xmlns="http://www.w3.org/2000/svg" xmlns:xlink="http://www.w3.org/1999/xlink" x="0px" y="0px"
	 width="216.668px" height="64.443px" viewBox="0 0 216.668 64.443" enable-background="new 0 0 216.668 64.443"
	 xml:space="preserve">
<path fill="#6D0705" d="M141.639,29.613c0,18.394-14.912,33.306-33.305,33.306c-18.395,0-33.305-14.912-33.305-33.306H0v34.83
	h216.668v-34.83H141.639z"/>
<g>
	<circle fill="#6D0705" cx="108.334" cy="29.615" r="29.615"/>
	<path fill-rule="evenodd" clip-rule="evenodd" fill="#FFFFFF" d="M120.971,8.996l-8.465,0.191c0,0-1.693-0.918-4.836-0.918
		c-6.289,0-10.641,3.143-10.641,9.432c0,5.805,3.723,7.498,3.723,7.498s-2.514,3.869-2.514,5.465c0,0.076,0.004,0.148,0.014,0.217
		c-0.008,0.043-0.014,0.084-0.014,0.121c0,1.5,2.9,1.645,2.9,1.645s-3.064,1.008-3.064,3.6c0,3.141,2.771,4.159,9.4,4.181V42.8
		c-0.215,0.059-0.371,0.25-0.371,0.482v1.865h-6.699c-0.223,0-0.404,0.182-0.404,0.402v0.404c0,0.068,0.02,0.133,0.051,0.193
		c-0.016,0.133-0.01,0.293-0.01,0.465c0,0.467,0.379,0.844,0.844,0.844c0.467,0,0.846-0.377,0.846-0.844
		c0-0.064-0.018-0.129-0.047-0.189l4.084,0.111l-4.225,2.439v1.207h0.004c0.031,0.438,0.396,0.781,0.842,0.781
		c0.465,0,0.844-0.377,0.844-0.844c0-0.184-0.129-0.355-0.311-0.494l5.594-2.262l6.176,1.539c-0.105,0.113-0.174,0.238-0.174,0.375
		c0,0.465,0.377,0.842,0.844,0.842c0.465,0,0.844-0.377,0.844-0.842c0-0.18,0.006-0.346-0.012-0.484v-0.723l-3.959-1.611l3.24-0.348
		c-0.07,0.094-0.113,0.195-0.113,0.301c0,0.467,0.379,0.844,0.844,0.844c0.467,0,0.844-0.377,0.844-0.844
		c0-0.273,0.016-0.518-0.064-0.672c0.029-0.057,0.047-0.121,0.047-0.189v-0.402c0-0.221-0.182-0.4-0.402-0.4l-6.9,0.342v-1.807
		c0-0.232-0.16-0.424-0.373-0.482v-2.404c7.061-0.26,8.877-2.21,8.877-5.157c0-2.736-3.387-4.178-9.674-4.178h-5.484l0.129-2.711
		l0.113-2.135c0,0,1.451,0.436,3.627,0.436c6.289,0,10.643-2.902,10.643-9.432c0-3.145-1.307-4.887-1.307-4.887l4.691-0.678V8.996z
		 M107.186,23.264c-3.627,0-5.32-2.418-5.32-5.805c0-3.869,1.693-5.805,5.562-5.805c3.627,0,5.32,2.178,5.32,5.805
		C112.748,21.57,111.055,23.264,107.186,23.264z"/>
</g>
</svg>
