<?xml version="1.0" encoding="utf-8"?>
<!-- Generator: Adobe Illustrator 16.0.0, SVG Export Plug-In . SVG Version: 6.00 Build 0)  -->
<!DOCTYPE svg PUBLIC "-//W3C//DTD SVG 1.1//EN" "http://www.w3.org/Graphics/SVG/1.1/DTD/svg11.dtd">
<svg version="1.1" id="Layer_1" xmlns="http://www.w3.org/2000/svg" xmlns:xlink="http://www.w3.org/1999/xlink" x="0px" y="0px"
	 width="216.668px" height="64.443px" viewBox="0 0 216.668 64.443" enable-background="new 0 0 216.668 64.443"
	 xml:space="preserve">
<path fill="#F9F5F4" d="M141.639,29.613c0,18.394-14.91,33.306-33.305,33.306c-18.394,0-33.305-14.912-33.305-33.306H0v34.83
	h216.668v-34.83H141.639z"/>
<g>
	<circle fill="#F9F5F4" cx="108.334" cy="29.615" r="29.615"/>
	<path fill="#6D0705" d="M120.971,8.996l-8.465,0.191c0,0-1.693-0.918-4.837-0.918c-6.288,0-10.641,3.143-10.641,9.432
		c0,5.805,3.724,7.498,3.724,7.498s-2.515,3.869-2.515,5.465c0,0.076,0.005,0.148,0.014,0.217c-0.008,0.043-0.014,0.084-0.014,0.121
		c0,1.5,2.901,1.646,2.901,1.646s-3.064,1.008-3.064,3.6c0,3.142,2.771,4.159,9.4,4.181V42.8c-0.215,0.06-0.372,0.25-0.372,0.482
		v1.865h-6.699c-0.222,0-0.403,0.182-0.403,0.401v0.404c0,0.068,0.02,0.133,0.051,0.193c-0.016,0.133-0.01,0.293-0.01,0.465
		c0,0.467,0.378,0.844,0.844,0.844c0.467,0,0.845-0.377,0.845-0.844c0-0.064-0.018-0.129-0.046-0.189l4.084,0.111l-4.225,2.439
		v1.207h0.004c0.031,0.438,0.396,0.78,0.841,0.78c0.466,0,0.844-0.377,0.844-0.844c0-0.184-0.128-0.355-0.31-0.494l5.594-2.262
		l6.175,1.539c-0.105,0.113-0.174,0.238-0.174,0.375c0,0.465,0.377,0.842,0.844,0.842c0.466,0,0.844-0.377,0.844-0.842
		c0-0.181,0.007-0.347-0.012-0.484v-0.723l-3.959-1.611l3.24-0.348c-0.07,0.094-0.113,0.194-0.113,0.301
		c0,0.467,0.379,0.844,0.845,0.844s0.844-0.377,0.844-0.844c0-0.273,0.017-0.518-0.065-0.672c0.031-0.057,0.049-0.121,0.049-0.189
		v-0.401c0-0.222-0.182-0.4-0.402-0.4l-6.9,0.342v-1.807c0-0.232-0.16-0.424-0.373-0.482v-2.403c7.062-0.261,8.877-2.21,8.877-5.157
		c0-2.736-3.387-4.178-9.674-4.178h-5.483l0.129-2.711l0.113-2.136c0,0,1.451,0.437,3.627,0.437c6.289,0,10.642-2.902,10.642-9.433
		c0-3.145-1.306-4.887-1.306-4.887l4.69-0.678V8.996H120.971z M107.186,23.264c-3.628,0-5.321-2.418-5.321-5.806
		c0-3.869,1.693-5.805,5.563-5.805c3.626,0,5.32,2.178,5.32,5.805C112.748,21.57,111.055,23.264,107.186,23.264z"/>
</g>
</svg>
