<?xml version="1.0" encoding="utf-8"?>
<!-- Generator: Adobe Illustrator 16.0.0, SVG Export Plug-In . SVG Version: 6.00 Build 0)  -->
<!DOCTYPE svg PUBLIC "-//W3C//DTD SVG 1.1//EN" "http://www.w3.org/Graphics/SVG/1.1/DTD/svg11.dtd">
<svg version="1.1" id="Layer_1" xmlns="http://www.w3.org/2000/svg" xmlns:xlink="http://www.w3.org/1999/xlink" x="0px" y="0px"
	 width="168.211px" height="177.926px" viewBox="0 0 168.211 177.926" enable-background="new 0 0 168.211 177.926"
	 xml:space="preserve">
<g>
	<circle fill="#DC140A" cx="84.404" cy="98.822" r="79.106"/>
	<g>
		<path fill="#FFFFFF" d="M33.854,107.166l8.461-25.735l-4.864-1.058v-3.877l15.794-0.353v4.23l-3.879,0.705L37.38,113.512h-7.756
			L18.061,81.431l-3.524-1.058v-3.877l15.863-0.353v4.23l-4.936,0.705L33.854,107.166z"/>
		<path fill="#FFFFFF" d="M76.186,113.512H57.854v-3.877l5.992-1.764V81.784l-5.992-1.411v-3.877l13.044-0.353v31.729l5.288,1.764
			V113.512z M67.019,59.573c2.821,0,4.584,1.411,4.584,4.936c0,3.173-2.469,4.936-4.584,4.936c-2.819,0-4.582-1.763-4.582-4.936
			C62.437,61.336,64.552,59.573,67.019,59.573z"/>
		<path fill="#FFFFFF" d="M154.271,94.122c0,11.985-7.05,20.095-17.627,20.095c-10.576,0-16.922-6.346-16.922-19.037
			c0-11.986,7.404-19.742,17.979-19.742C148.278,75.438,154.271,82.841,154.271,94.122z M127.127,94.827
			c0,8.461,2.819,13.749,9.871,13.749c7.05,0,9.871-4.936,9.871-14.102c0-7.755-2.469-13.396-9.519-13.396
			C130.299,81.078,127.127,85.662,127.127,94.827z"/>
		<path fill-rule="evenodd" clip-rule="evenodd" fill="#FFFFFF" d="M116.64,53.99l-12.339,0.282c0,0-2.468-1.339-7.052-1.339
			c-9.166,0-15.512,4.583-15.512,13.749c0,8.461,5.429,10.929,5.429,10.929S83.5,83.25,83.5,85.578c0,0.112,0.006,0.217,0.02,0.316
			c-0.012,0.062-0.02,0.122-0.02,0.178c0,2.184,4.229,2.395,4.229,2.395s-4.468,1.47-4.468,5.25c0,4.576,4.038,6.062,13.704,6.09
			v3.463c-0.312,0.083-0.544,0.364-0.544,0.702v2.721h-9.765c-0.323,0-0.587,0.264-0.587,0.586v0.588
			c0,0.101,0.028,0.195,0.073,0.281c-0.022,0.195-0.013,0.429-0.013,0.68c0,0.678,0.551,1.229,1.229,1.229
			c0.681,0,1.231-0.552,1.231-1.229c0-0.096-0.026-0.188-0.067-0.277l5.954,0.162l-6.159,3.557v1.761l0.006-0.003
			c0.047,0.638,0.576,1.143,1.228,1.143c0.678,0,1.228-0.552,1.228-1.23c0-0.27-0.186-0.52-0.45-0.723l8.154-3.295l9.003,2.242
			c-0.156,0.164-0.255,0.349-0.255,0.545c0,0.68,0.551,1.23,1.229,1.23c0.68,0,1.229-0.551,1.229-1.23
			c0-0.262,0.01-0.504-0.014-0.703v-1.058l-5.771-2.345l4.723-0.51c-0.102,0.137-0.166,0.285-0.166,0.44
			c0,0.679,0.551,1.229,1.23,1.229s1.229-0.551,1.229-1.229c0-0.399,0.024-0.754-0.095-0.979c0.043-0.085,0.069-0.179,0.069-0.276
			v-0.586c0-0.324-0.266-0.588-0.587-0.588l-10.059,0.5v-2.633c0-0.338-0.232-0.619-0.544-0.702v-3.506
			c10.294-0.378,12.94-3.22,12.94-7.517c0-3.99-4.936-6.09-14.103-6.09h-7.993l0.186-3.953l0.168-3.112c0,0,2.114,0.635,5.287,0.635
			c9.166,0,15.513-4.231,15.513-13.75c0-4.583-1.904-7.122-1.904-7.122l6.84-0.986V53.99z M96.544,74.79
			c-5.288,0-7.756-3.525-7.756-8.46c0-5.641,2.468-8.461,8.107-8.461c5.289,0,7.757,3.172,7.757,8.461
			C104.652,72.322,102.185,74.79,96.544,74.79z"/>
	</g>
	<g>
		<path fill="#FFFFFF" d="M29.804,132.357v0.871c0,0.816-0.653,1.469-1.469,1.469c-0.817,0-1.471-0.652-1.471-1.469v-3.838
			c0-0.816,0.653-1.471,1.471-1.471c0.815,0,1.469,0.654,1.469,1.471v2.041h-2.231v1.797c0,0.421,0.34,0.761,0.763,0.761
			c0.421,0,0.762-0.34,0.762-0.761v-0.79L29.804,132.357z M27.572,130.724h1.524v-1.333c0-0.422-0.341-0.762-0.762-0.762
			c-0.423,0-0.763,0.34-0.763,0.762V130.724z"/>
		<path fill="#FFFFFF" d="M40.212,136.752l-0.707,0.081v-2.599c-0.231,0.285-0.571,0.463-0.939,0.463
			c-0.707,0-1.292-0.652-1.292-1.469v-3.838c0-0.816,0.585-1.471,1.292-1.471c0.422,0,0.804,0.232,1.035,0.586l0.122-0.518h0.489
			V136.752z M39.505,129.391c0-0.422-0.341-0.762-0.762-0.762c-0.422,0-0.762,0.34-0.762,0.762v3.838
			c0,0.421,0.34,0.761,0.762,0.761c0.421,0,0.762-0.34,0.762-0.761V129.391z"/>
		<path fill="#FFFFFF" d="M50.798,127.988v6.641h-0.49l-0.123-0.517c-0.23,0.354-0.612,0.585-1.033,0.585
			c-0.708,0-1.293-0.652-1.293-1.469v-5.24h0.708v5.24c0,0.421,0.34,0.761,0.761,0.761c0.423,0,0.763-0.34,0.763-0.761v-5.24H50.798
			z"/>
		<path fill="#FFFFFF" d="M58.457,126.274h0.708v0.952h-0.708V126.274z M59.165,127.988h-0.708v6.641h0.708V127.988z"/>
		<path fill="#FFFFFF" d="M66.824,127.988h0.49l0.123,0.518c0.231-0.354,0.611-0.586,1.034-0.586c0.707,0,1.292,0.654,1.292,1.471
			v3.838c0,0.816-0.585,1.469-1.292,1.469c-0.368,0-0.708-0.178-0.939-0.463v2.518l-0.708,0.081V127.988z M67.532,133.229
			c0,0.421,0.341,0.761,0.762,0.761c0.423,0,0.762-0.34,0.762-0.761v-3.838c0-0.422-0.339-0.762-0.762-0.762
			c-0.421,0-0.762,0.34-0.762,0.762V133.229z"/>
		<path fill="#FFFFFF" d="M80.09,133.677c0,0.136,0.11,0.245,0.245,0.245v0.707c-0.285,0-0.544-0.123-0.721-0.312
			c-0.259,0.245-0.612,0.381-0.993,0.381c-0.816,0-1.47-0.652-1.47-1.469v-0.75c0-0.68,0.599-1.02,0.599-1.02l1.048-0.6
			c0,0,0.585-0.34,0.585-0.884v-0.667c0-0.381-0.299-0.68-0.68-0.68c-0.382,0-0.681,0.299-0.681,0.68v0.789l-0.708,0.082v-0.871
			c0-0.762,0.626-1.389,1.389-1.389c0.761,0,1.387,0.627,1.387,1.389V133.677z M77.858,133.229c0,0.421,0.341,0.761,0.763,0.761
			s0.762-0.34,0.762-0.761v-1.933c-0.108,0.108-0.23,0.177-0.23,0.177l-1.049,0.598c0,0-0.245,0.137-0.245,0.408V133.229z"/>
		<path fill="#FFFFFF" d="M92.228,129.391c0-0.422-0.341-0.762-0.762-0.762c-0.424,0-0.763,0.34-0.763,0.762v5.238h-0.708v-5.238
			c0-0.422-0.34-0.762-0.762-0.762s-0.763,0.34-0.763,0.762v5.238h-0.706v-6.641h0.49l0.121,0.518
			c0.231-0.354,0.614-0.586,1.034-0.586c0.382,0,0.722,0.191,0.967,0.49c0.258-0.299,0.652-0.49,1.089-0.49
			c0.815,0,1.47,0.654,1.47,1.471v5.238h-0.708V129.391z"/>
		<path fill="#FFFFFF" d="M100.581,126.274h0.708v0.952h-0.708V126.274z M101.289,127.988h-0.708v6.641h0.708V127.988z"/>
		<path fill="#FFFFFF" d="M111.806,132.357v0.871c0,0.816-0.652,1.469-1.47,1.469c-0.816,0-1.471-0.652-1.471-1.469v-3.838
			c0-0.816,0.654-1.471,1.471-1.471c0.817,0,1.47,0.654,1.47,1.471v2.041h-2.232v1.797c0,0.421,0.341,0.761,0.763,0.761
			c0.423,0,0.762-0.34,0.762-0.761v-0.79L111.806,132.357z M109.573,130.724h1.524v-1.333c0-0.422-0.339-0.762-0.762-0.762
			c-0.422,0-0.763,0.34-0.763,0.762V130.724z"/>
		<path fill="#FFFFFF" d="M119.328,134.629v-6.641h0.49l0.123,0.518c0.232-0.354,0.612-0.586,1.034-0.586
			c0.709,0,1.293,0.654,1.293,1.471v5.238h-0.708v-5.238c0-0.422-0.34-0.762-0.762-0.762s-0.762,0.34-0.762,0.762v5.238H119.328z"/>
		<path fill="#FFFFFF" d="M129.453,127.988h0.857v-1.278l0.708-0.081v1.359h0.855v0.708h-0.855v5.021c0,0.15,0.12,0.272,0.271,0.272
			v0.708c-0.545,0-0.979-0.436-0.979-0.98v-5.021h-0.857V127.988z"/>
		<path fill="#FFFFFF" d="M139.004,129.391c0-0.816,0.652-1.471,1.47-1.471c0.816,0,1.469,0.654,1.469,1.471v3.838
			c0,0.816-0.652,1.469-1.469,1.469c-0.817,0-1.47-0.652-1.47-1.469V129.391z M139.712,133.229c0,0.421,0.339,0.761,0.762,0.761
			c0.422,0,0.761-0.34,0.761-0.761v-3.838c0-0.422-0.339-0.762-0.761-0.762c-0.423,0-0.762,0.34-0.762,0.762V133.229z"/>
	</g>
	<path fill="#FFFFFF" d="M142.478,121.58H26.33c-0.156,0-0.282-0.126-0.282-0.281s0.126-0.281,0.282-0.281h116.147
		c0.155,0,0.281,0.126,0.281,0.281S142.633,121.58,142.478,121.58z"/>
</g>
<path opacity="0.75" fill="#EAEAE0" d="M0,0v98.822c0-46.451,37.654-84.105,84.105-84.105c46.448,0,84.105,37.655,84.105,84.105V0H0
	z"/>
</svg>
